<svg viewBox="0 0 128 128" fill="none" xmlns="http://www.w3.org/2000/svg">
  <path d="M35 108C34 82 44 63 65 60C87 63 96 82 94 108H35Z" fill="#D88732" stroke="#51331F" stroke-width="5"/>
  <path d="M40 52L29 17L53 35M86 52L100 17L76 35" fill="#F2B85F" stroke="#51331F" stroke-width="5" stroke-linejoin="round"/>
  <path d="M38 38C49 25 79 24 91 40L85 49H44L38 38Z" fill="#4E7749"/>
  <ellipse cx="64" cy="57" rx="25" ry="23" fill="#F4C778" stroke="#51331F" stroke-width="5"/>
  <path d="M43 47C50 37 78 34 87 48" stroke="#4E7749" stroke-width="8" stroke-linecap="round"/>
  <circle cx="55" cy="56" r="3.5" fill="#2F221A"/><circle cx="74" cy="56" r="3.5" fill="#2F221A"/>
  <path d="M59 68L64 72L69 68" stroke="#51331F" stroke-width="3.5" stroke-linecap="round"/>
  <path d="M97 45C118 57 118 91 96 103M92 45L98 104" stroke="#714728" stroke-width="5" stroke-linecap="round"/>
  <path d="M83 72L113 78M105 71L113 78L104 84" stroke="#F7E5B5" stroke-width="4" stroke-linecap="round" stroke-linejoin="round"/>
  <path d="M31 91L16 105M31 97L21 114" stroke="#F7E5B5" stroke-width="4" stroke-linecap="round"/>
</svg>
