<svg viewBox="0 0 128 128" fill="none" xmlns="http://www.w3.org/2000/svg">
  <path d="M24 107C27 76 42 64 65 64C90 65 104 81 106 107H24Z" fill="#C88032" stroke="#4E3424" stroke-width="5"/>
  <path d="M40 53L31 20L54 38M84 53L97 20L74 38" fill="#E8A94D" stroke="#4E3424" stroke-width="5" stroke-linejoin="round"/>
  <ellipse cx="64" cy="59" rx="25" ry="22" fill="#F3C46F" stroke="#4E3424" stroke-width="5"/>
  <path d="M42 50C49 34 80 33 88 50" fill="#7D5637" stroke="#4E3424" stroke-width="5"/>
  <circle cx="54" cy="57" r="7" fill="#9DDAEA" stroke="#4E3424" stroke-width="4"/><circle cx="75" cy="57" r="7" fill="#9DDAEA" stroke="#4E3424" stroke-width="4"/>
  <path d="M61 57H68M59 70C62 74 67 74 70 70" stroke="#4E3424" stroke-width="3.5" stroke-linecap="round"/>
  <path d="M92 69C105 69 115 79 115 93V108H91V69Z" fill="#6E4B36" stroke="#4E3424" stroke-width="5"/>
  <circle cx="99" cy="89" r="13" fill="#B94F3E" stroke="#4E3424" stroke-width="4"/>
  <path d="M99 76V68C99 62 105 59 110 60" stroke="#FFE28A" stroke-width="4" stroke-linecap="round"/>
</svg>
