<svg width="128" height="128" viewBox="0 0 128 128" fill="none" xmlns="http://www.w3.org/2000/svg">
  <path d="M16 81C5 67 11 42 32 36" stroke="#4E3A34" stroke-width="8" stroke-linecap="round"/>
  <path d="M95 90C116 95 124 104 121 118" stroke="#4E3A34" stroke-width="8" stroke-linecap="round"/>
  <ellipse cx="60" cy="77" rx="41" ry="29" fill="#67504D"/>
  <ellipse cx="69" cy="77" rx="34" ry="24" fill="#8B6E69"/>
  <circle cx="42" cy="44" r="18" fill="#7B605D"/>
  <circle cx="77" cy="42" r="20" fill="#7B605D"/>
  <path d="M41 31L32 13L52 24L41 31Z" fill="#C96F76"/>
  <path d="M78 29L92 14L90 33L78 29Z" fill="#C96F76"/>
  <path d="M49 66L60 59" stroke="#140C09" stroke-width="5" stroke-linecap="round"/>
  <path d="M83 64L71 58" stroke="#140C09" stroke-width="5" stroke-linecap="round"/>
  <path d="M55 88C60 71 84 71 96 83L97 94L56 95L55 88Z" fill="#E4D9D2"/>
  <path d="M60 88L65 99L71 87L76 99L82 86L87 96" stroke="#8B1E2A" stroke-width="4" stroke-linecap="round" stroke-linejoin="round"/>
  <path d="M60 80C68 72 82 72 91 80" stroke="#8B1E2A" stroke-width="4" stroke-linecap="round"/>
  <circle cx="58" cy="67" r="5" fill="#E11D34"/>
  <circle cx="84" cy="67" r="5" fill="#E11D34"/>
  <circle cx="73" cy="82" r="5" fill="#8B4037"/>
  <path d="M55 74C64 65 79 65 90 74" stroke="#140C09" stroke-width="4" stroke-linecap="round"/>
  <path d="M32 93C43 86 51 84 61 84" stroke="#3C2B25" stroke-width="6" stroke-linecap="round"/>
</svg>
