<svg viewBox="0 0 128 128" fill="none" xmlns="http://www.w3.org/2000/svg">
  <path d="M98 89C117 91 124 104 118 119" stroke="#503838" stroke-width="9" stroke-linecap="round"/>
  <path d="M13 84C12 52 37 33 71 37C102 41 115 63 107 88C101 110 74 117 42 108C23 104 14 96 13 84Z" fill="#594748" stroke="#251B1D" stroke-width="7"/>
  <circle cx="40" cy="37" r="21" fill="#765A5A" stroke="#251B1D" stroke-width="6"/>
  <circle cx="41" cy="37" r="9" fill="#B9606B"/>
  <path d="M26 73L5 84L27 94" fill="#987777" stroke="#251B1D" stroke-width="6" stroke-linejoin="round"/>
  <path d="M50 42L58 19L69 31L81 14L89 40" fill="#D6A840" stroke="#251B1D" stroke-width="5" stroke-linejoin="round"/>
  <path d="M66 44L92 39L105 57L86 67L62 59L66 44Z" fill="#3D383F" stroke="#251B1D" stroke-width="5"/>
  <circle cx="40" cy="68" r="6" fill="#F02743"/>
  <path d="M50 61L64 73" stroke="#251B1D" stroke-width="6" stroke-linecap="round"/>
  <path d="M11 79L1 74M12 87L0 89M16 95L5 104" stroke="#251B1D" stroke-width="3.5" stroke-linecap="round"/>
  <path d="M45 108L36 121M82 109L91 122" stroke="#503838" stroke-width="8" stroke-linecap="round"/>
</svg>
