<svg viewBox="0 0 128 128" fill="none" xmlns="http://www.w3.org/2000/svg">
  <path d="M26 103C31 73 48 65 69 68C89 71 102 88 104 108L26 103Z" fill="#C9574F" stroke="#4B2924" stroke-width="5"/>
  <path d="M39 53L31 18L55 38M84 52L96 17L74 37" fill="#E97C72" stroke="#4B2924" stroke-width="5" stroke-linejoin="round"/>
  <ellipse cx="63" cy="58" rx="25" ry="22" fill="#F19B8E" stroke="#4B2924" stroke-width="5"/>
  <path d="M48 52L57 56M78 51L70 56" stroke="#4B2924" stroke-width="5" stroke-linecap="round"/>
  <path d="M58 68C62 72 67 72 71 67" stroke="#4B2924" stroke-width="3.5" stroke-linecap="round"/>
  <path d="M31 74C18 75 12 87 18 98C25 107 40 101 45 91" fill="#8F3737" stroke="#4B2924" stroke-width="5"/>
  <path d="M21 73L13 61M28 71L24 57M35 75L36 59" stroke="#FFF1D2" stroke-width="4" stroke-linecap="round"/>
  <path d="M91 76C108 73 118 84 114 98C109 110 94 107 84 97" fill="#8F3737" stroke="#4B2924" stroke-width="5"/>
  <path d="M105 73L111 59M98 71L100 56M112 78L121 67" stroke="#FFF1D2" stroke-width="4" stroke-linecap="round"/>
</svg>
