<svg viewBox="0 0 128 128" fill="none" xmlns="http://www.w3.org/2000/svg">
  <path d="M31 109C33 78 44 63 64 62C85 64 96 80 99 109H31Z" fill="#5265B8" stroke="#30294F" stroke-width="5"/>
  <path d="M41 53L31 20L53 37M84 53L96 19L74 37" fill="#87D9E7" stroke="#30294F" stroke-width="5" stroke-linejoin="round"/>
  <ellipse cx="63" cy="58" rx="24" ry="22" fill="#A9ECF3" stroke="#30294F" stroke-width="5"/>
  <circle cx="54" cy="57" r="3.5" fill="#30294F"/><circle cx="73" cy="57" r="3.5" fill="#30294F"/>
  <path d="M58 68C61 72 66 72 69 68" stroke="#30294F" stroke-width="3.5" stroke-linecap="round"/>
  <path d="M34 38L62 7L88 39C70 34 52 34 34 38Z" fill="#6951A6" stroke="#30294F" stroke-width="5" stroke-linejoin="round"/>
  <path d="M52 20L58 23L60 30L64 24L72 23L66 19L65 12L61 18L52 20Z" fill="#FFE58B"/>
  <path d="M89 51L82 105M87 59H108" stroke="#694B8D" stroke-width="6" stroke-linecap="round"/>
  <circle cx="108" cy="58" r="10" fill="#79E7F7" stroke="#FFF6C8" stroke-width="4"/>
</svg>
