<svg width="128" height="128" viewBox="0 0 128 128" fill="none" xmlns="http://www.w3.org/2000/svg">
  <path d="M18 78C10 67 12 52 26 47" stroke="#9D806A" stroke-width="6" stroke-linecap="round"/>
  <path d="M90 87C109 90 119 99 118 112" stroke="#9D806A" stroke-width="6" stroke-linecap="round"/>
  <ellipse cx="62" cy="75" rx="36" ry="25" fill="#CDB59C"/>
  <ellipse cx="69" cy="76" rx="31" ry="22" fill="#E4D4C0"/>
  <circle cx="45" cy="47" r="16" fill="#DCC9B4"/>
  <circle cx="75" cy="43" r="18" fill="#DCC9B4"/>
  <path d="M44 36L37 22L52 30L44 36Z" fill="#F2B5B7"/>
  <path d="M76 32L85 18L86 33L76 32Z" fill="#F2B5B7"/>
  <path d="M51 65L60 59" stroke="#231710" stroke-width="4" stroke-linecap="round"/>
  <path d="M79 63L70 58" stroke="#231710" stroke-width="4" stroke-linecap="round"/>
  <path d="M58 84C62 72 79 71 88 80L89 88L59 90L58 84Z" fill="#F6EFE5"/>
  <path d="M63 85L67 92L71 85L75 92L79 84" stroke="#9E4F4B" stroke-width="3" stroke-linecap="round" stroke-linejoin="round"/>
  <path d="M63 79C68 75 76 75 81 79" stroke="#9E4F4B" stroke-width="3" stroke-linecap="round"/>
  <circle cx="61" cy="67" r="4" fill="#B91D2A"/>
  <circle cx="81" cy="66" r="4" fill="#B91D2A"/>
  <circle cx="71" cy="80" r="4" fill="#7D3E39"/>
  <path d="M59 74C66 69 76 69 84 74" stroke="#231710" stroke-width="3" stroke-linecap="round"/>
</svg>
