<svg viewBox="0 0 128 128" fill="none" xmlns="http://www.w3.org/2000/svg">
  <path d="M91 83C109 81 122 89 120 105" stroke="#B77F73" stroke-width="6" stroke-linecap="round"/>
  <path d="M24 78C24 58 42 44 67 46C89 47 101 60 99 78C97 95 78 103 53 100C36 98 24 91 24 78Z" fill="#D8C19E" stroke="#4B392D" stroke-width="5"/>
  <circle cx="40" cy="49" r="16" fill="#EBCBB3" stroke="#4B392D" stroke-width="5"/>
  <circle cx="42" cy="49" r="8" fill="#F3AEB2"/>
  <path d="M29 73L13 78L28 84" fill="#E9D6B9" stroke="#4B392D" stroke-width="4" stroke-linejoin="round"/>
  <circle cx="39" cy="68" r="4" fill="#2B211B"/>
  <path d="M16 75L5 70M17 81L4 83M19 87L8 94" stroke="#4B392D" stroke-width="2.5" stroke-linecap="round"/>
  <path d="M51 100L43 110M78 97L84 108" stroke="#B77F73" stroke-width="5" stroke-linecap="round"/>
  <path d="M66 49C73 38 83 37 90 43" stroke="#FFF4D4" stroke-width="5" stroke-linecap="round"/>
</svg>
