<svg viewBox="0 0 128 128" fill="none" xmlns="http://www.w3.org/2000/svg">
  <path d="M92 87C112 87 122 97 118 113" stroke="#815C58" stroke-width="7" stroke-linecap="round"/>
  <path d="M21 81C20 57 41 40 70 43C95 46 105 64 100 83C96 101 73 108 47 102C31 99 22 92 21 81Z" fill="#8E7770" stroke="#3D2D2B" stroke-width="6"/>
  <circle cx="43" cy="43" r="18" fill="#A98B84" stroke="#3D2D2B" stroke-width="5"/>
  <circle cx="44" cy="43" r="8" fill="#CF7E85"/>
  <path d="M31 73L12 81L31 88" fill="#C2A79A" stroke="#3D2D2B" stroke-width="5" stroke-linejoin="round"/>
  <path d="M64 46L76 32L87 48" fill="#5A4743" stroke="#3D2D2B" stroke-width="4" stroke-linejoin="round"/>
  <circle cx="43" cy="67" r="5" fill="#D9283D"/>
  <path d="M53 61L63 70" stroke="#3D2D2B" stroke-width="4" stroke-linecap="round"/>
  <path d="M17 77L5 72M18 83L4 85M20 89L9 97" stroke="#3D2D2B" stroke-width="3" stroke-linecap="round"/>
  <path d="M50 101L43 113M78 102L85 114" stroke="#815C58" stroke-width="6" stroke-linecap="round"/>
</svg>
