<svg width="128" height="128" viewBox="0 0 128 128" fill="none" xmlns="http://www.w3.org/2000/svg">
  <rect width="128" height="128" rx="36" fill="#E4EDFF"/>
  <path d="M37 101C37 83.3269 49.9837 69 66 69C82.0163 69 95 83.3269 95 101H37Z" fill="#95AEEB"/>
  <path d="M42 54L28 21L50 34L42 54Z" fill="#95AEEB"/>
  <path d="M85 54L99 21L77 34L85 54Z" fill="#95AEEB"/>
  <ellipse cx="64" cy="62" rx="26" ry="24" fill="#C9D8FF"/>
  <circle cx="54" cy="61" r="4" fill="#34251B"/>
  <circle cx="74" cy="61" r="4" fill="#34251B"/>
  <path d="M58 73C61 77 67 77 70 73" stroke="#34251B" stroke-width="4" stroke-linecap="round"/>
  <path d="M90 48L82 91" stroke="#5A6FAD" stroke-width="6" stroke-linecap="round"/>
  <path d="M97 44L111 54L102 57L108 69L95 64L89 78L92 62L81 59L91 54L97 44Z" fill="#FFF2A6"/>
  <path d="M95 40L98 47L105 50L99 53L97 61L93 54L86 53L92 48L95 40Z" fill="#FFFFFF" fill-opacity="0.85"/>
</svg>
