<svg viewBox="0 0 128 128" fill="none" xmlns="http://www.w3.org/2000/svg">
  <path d="M29 108C31 80 44 64 65 62C87 64 99 82 101 108H29Z" fill="#6577B8" stroke="#303451" stroke-width="5"/>
  <path d="M39 54L24 20L53 38M85 52L105 20L75 37" fill="#98ADEC" stroke="#303451" stroke-width="5" stroke-linejoin="round"/>
  <path d="M41 44C48 30 83 27 91 45L83 51H47L41 44Z" fill="#CAD6FF"/>
  <ellipse cx="65" cy="58" rx="25" ry="22" fill="#BCCAF7" stroke="#303451" stroke-width="5"/>
  <circle cx="55" cy="56" r="3.5" fill="#303451"/><circle cx="75" cy="56" r="3.5" fill="#303451"/>
  <path d="M59 68C63 72 68 72 71 67" stroke="#303451" stroke-width="3.5" stroke-linecap="round"/>
  <path d="M91 43L84 65H96L86 91L111 60H99L108 43H91Z" fill="#FFE66F" stroke="#6E5B2C" stroke-width="3" stroke-linejoin="round"/>
  <path d="M35 91C19 85 15 70 26 61" stroke="#CAD6FF" stroke-width="6" stroke-linecap="round"/>
  <path d="M29 57L18 58M31 64L20 69" stroke="#FFE66F" stroke-width="4" stroke-linecap="round"/>
</svg>
